<?xml version="1.0" encoding="utf-8"?>
<!-- Generator: Adobe Illustrator 18.1.0, SVG Export Plug-In . SVG Version: 6.00 Build 0)  -->
<svg version="1.1" id="Layer_1" xmlns="http://www.w3.org/2000/svg" xmlns:xlink="http://www.w3.org/1999/xlink" x="0px" y="0px"
	 viewBox="0 0 172 38" enable-background="new 0 0 172 38" xml:space="preserve">
<g>
	<g>
		<path fill="#62544F" d="M168.1,6.2c1.7,0,3.2,1.4,3.2,3.2c0,1.8-1.5,3.2-3.2,3.2c-1.7,0-3.2-1.4-3.2-3.2
			C164.8,7.5,166.3,6.2,168.1,6.2z M168.1,12.1c1.5,0,2.6-1.2,2.6-2.7c0-1.6-1.2-2.7-2.6-2.7c-1.5,0-2.6,1.2-2.6,2.7
			C165.4,10.9,166.6,12.1,168.1,12.1z M166.8,7.5h1.4c0.9,0,1.3,0.4,1.3,1.1c0,0.7-0.4,1-1,1l1.1,1.7H169l-1-1.6h-0.6v1.6h-0.6V7.5z
			 M167.4,9.1h0.6c0.5,0,1,0,1-0.6c0-0.5-0.4-0.6-0.8-0.6h-0.7V9.1z"/>
	</g>
	<g>
		<path fill="#F15D22" d="M21.1,0C10.6,0,2,8.6,2,19.1c0,10.5,8.6,19.1,19.1,19.1c10.5,0,19.1-8.6,19.1-19.1C40.2,8.6,31.6,0,21.1,0
			z M21.1,37.6c-10.2,0-18.5-8.3-18.5-18.5c0-10.2,8.3-18.5,18.5-18.5c10.2,0,18.5,8.3,18.5,18.5C39.6,29.3,31.3,37.6,21.1,37.6z"/>
		<g>
			<path fill="#F15D22" d="M21.1,31.3c-6.7,0-12.2-5.5-12.2-12.2c0-6.7,5.5-12.2,12.2-12.2c6.7,0,12.2,5.5,12.2,12.2
				C33.3,25.8,27.8,31.3,21.1,31.3z"/>
		</g>
		<g>
			<path fill="#F15D22" d="M21.1,35.1c-8.8,0-16-7.2-16-16c0-8.8,7.2-16,16-16c8.8,0,16,7.2,16,16C37.1,28,29.9,35.1,21.1,35.1
				L21.1,35.1z M21.1,4.4C13,4.4,6.4,11,6.4,19.1c0,8.1,6.6,14.7,14.7,14.7c8.1,0,14.7-6.6,14.7-14.7C35.8,11,29.2,4.4,21.1,4.4
				L21.1,4.4z"/>
		</g>
	</g>
	<path fill="#62544F" d="M151.6,6.1c0,0-9.7,0-10,0c-0.3,0-0.5,0.2-0.5,0.5c0,0.1,0,24.9,0,25.2c0,0.3,0.2,0.5,0.5,0.5
		c0.1,0,10.1,0,10.1,0c7.9,0,13.5-3.5,13.5-11.9c0-0.4,0-1.8,0-2.3C165.3,10.1,160.3,6.1,151.6,6.1z M158.3,20.6
		c0,3.5-2.3,6.4-6.5,6.4h-3.7V11.2h3.7c4.5,0,6.5,3.3,6.5,6.4C158.3,18.4,158.3,20.4,158.3,20.6z"/>
	<path fill="#62544F" d="M135,6.1c-0.4,0-5.8,0-6,0c-0.3,0-0.5,0.2-0.5,0.5c0,0.3,0,16.2,0,16.2c0,2.9-1.8,4.8-5.1,4.8
		c-3.4,0-5.2-1.9-5.2-4.8c0,0,0-15.9,0-16.2c0-0.2-0.2-0.5-0.5-0.5c-0.3,0,0,0,0,0s-5.9,0-6,0c-0.3,0-0.5,0.2-0.5,0.5
		c0,0.1,0,16.4,0,16.4c0,5.6,4.3,10,12.2,10c7.8,0,12.1-4.3,12.1-10c0,0,0-16.3,0-16.4C135.5,6.3,135.4,6.1,135,6.1z"/>
	<path fill="#62544F" d="M105.7,6.5c0-0.2-0.2-0.5-0.5-0.5c-0.1,0-7.7,0-7.8,0c-0.3,0-0.5,0.1-0.6,0.4c0,0.1-5.2,17-5.2,17
		s-5.2-16.9-5.2-17c-0.1-0.2-0.3-0.4-0.6-0.4c-0.1,0-7.7,0-7.8,0c-0.3,0-0.5,0.2-0.5,0.5c0,0.3,0,24.9,0,25.2c0,0.3,0.2,0.5,0.5,0.5
		c0,0,5.1,0,5.4,0c0.3,0,0.5-0.2,0.5-0.5c0-0.1,0-17.2,0-17.2H84c0,0,5.3,17.1,5.4,17.3c0.1,0.2,0.2,0.3,0.5,0.3c0.1,0,3.2,0,3.4,0
		c0.2,0,0.4-0.1,0.5-0.4c0.1-0.2,5.4-17.3,5.4-17.3h0.1c0,0,0,16.9,0,17.2c0,0.3,0.2,0.5,0.5,0.5c0.2,0,5.1,0,5.4,0
		c0.3,0,0.5-0.2,0.5-0.5C105.7,31.6,105.7,6.7,105.7,6.5z"/>
	<path fill="#62544F" d="M69.1,13L72,9.7l0,0c0.1-0.1,0.2-0.2,0.2-0.4c0-0.1-0.1-0.3-0.2-0.3c-1.5-1.5-5-3.7-10.7-3.7
		C54.4,5.3,50,8.9,50,13.6c0,4.2,3.5,6.6,7.2,7.4c1.6,0.4,3,0.7,4.8,1.1c2.3,0.5,4,1.5,4,3c0,1.7-1.5,2.8-4.7,2.8
		c-4.3,0-7.5-2.1-9-3.2c-0.1-0.1-0.2-0.1-0.3-0.1c-0.1,0-0.3,0.1-0.4,0.2L49,28.4l0,0c-0.1,0.1-0.1,0.2-0.1,0.3
		c0,0.2,0.1,0.3,0.2,0.4c1.5,1.2,5.5,3.7,12.2,3.7c6.5,0,11.5-3.3,11.5-8.1c0-4.4-3.2-6.8-8.5-8c-1.2-0.3-2.5-0.6-4-0.9
		c-2.5-0.5-3.7-1.4-3.7-2.8c0-1.5,1.5-2.8,4.6-2.8c3.8,0,6.2,1.8,7.2,2.7c0.1,0.1,0.2,0.1,0.3,0.1C68.9,13.1,69,13.1,69.1,13z"/>
</g>
</svg>
